<svg xmlns="http://www.w3.org/2000/svg" version="1.1" xmlns:xlink="http://www.w3.org/1999/xlink" xmlns:svgjs="http://svgjs.dev/svgjs" width="2000" height="1500" viewBox="0 0 2000 1500"><rect width="2000" height="1500" fill="#2f5651"></rect><g transform="matrix(0.75,0,0,0.75,249.090909090909,532.9683769062476)"><svg viewBox="0 0 396 115" data-background-color="#2f5651" preserveAspectRatio="xMidYMid meet" height="580" width="2000" xmlns="http://www.w3.org/2000/svg" xmlns:xlink="http://www.w3.org/1999/xlink"><g id="tight-bounds" transform="matrix(1,0,0,1,0.2400000000000091,-0.12382377981259651)"><svg viewBox="0 0 395.52 115.2476475596252" height="115.2476475596252" width="395.52"><g><svg viewBox="0 0 735.7213363753353 214.37639885892267" height="115.2476475596252" width="395.52"><g><rect width="11.208373460593792" height="214.37639885892267" x="273.77265178165914" y="0" fill="#bfd7b7" opacity="1" stroke-width="0" stroke="transparent" fill-opacity="1" class="rect-qz-0" data-fill-palette-color="primary" rx="1%" id="qz-0" data-palette-color="#bfd7b7"></rect></g><g><rect width="11.208373460593792" height="214.37639885892267" x="299.65167113308246" y="0" fill="#bfd7b7" opacity="1" stroke-width="0" stroke="transparent" fill-opacity="1" class="rect-qz-1" data-fill-palette-color="primary" rx="1%" id="qz-1" data-palette-color="#bfd7b7"></rect></g><g transform="matrix(1,0,0,1,340.2013363753354,0.5332746240271575)"><svg viewBox="0 0 395.52 213.30984961086835" height="213.30984961086835" width="395.52"><g id="textblocktransform"><svg viewBox="0 0 395.52 213.30984961086835" height="213.30984961086835" width="395.52" id="textblock"><g><svg viewBox="0 0 395.52 124.2874827668172" height="124.2874827668172" width="395.52"><g transform="matrix(1,0,0,1,0,0)"><svg width="395.52" viewBox="1.22 -31.62 102.7 32.28" height="124.2874827668172" data-palette-color="#bfd7b7"><path d="M1.22-28.52L5.66-27.49 5.66-2.95 1.59-1.81 1.39 0 14.6 0 14.92-1.95 10.42-2.78 10.42-14.38 25.73-14.38 25.73-2.95 21.68-1.81 21.44 0 34.69 0 34.94-1.95 30.49-2.78 30.49-27.59 34.57-28.52 34.86-30.37 21.53-30.37 21.26-28.52 25.73-27.49 25.73-16.89 10.42-16.89 10.42-27.59 14.53-28.52 14.77-30.37 1.49-30.37 1.22-28.52ZM45.87 0.66Q48.7 0.66 51.05-0.78 53.39-2.22 54.75-4.83 56.1-7.45 56.1-10.77L56.1-10.77Q56.1-14.11 54.94-16.66 53.78-19.21 51.6-20.63 49.41-22.05 46.46-22.05L46.46-22.05Q43.67-22.05 41.25-20.65 38.82-19.26 37.33-16.61 35.84-13.96 35.84-10.4L35.84-10.4Q35.84-7.23 37.02-4.72 38.21-2.22 40.46-0.78 42.72 0.66 45.87 0.66L45.87 0.66ZM45.43-19.48Q47.6-19.48 49.03-17.88 50.46-16.28 51.11-13.84 51.76-11.4 51.76-8.76L51.76-8.76Q51.76-6.96 51.19-5.35 50.63-3.74 49.48-2.72 48.34-1.71 46.7-1.71L46.7-1.71Q44.43-1.71 42.97-3.2 41.5-4.69 40.84-7.06 40.18-9.42 40.18-12.13L40.18-12.13Q40.18-14.14 40.74-15.81 41.31-17.48 42.49-18.48 43.67-19.48 45.43-19.48L45.43-19.48ZM68.67 0.66Q71.5 0.66 73.85-0.78 76.19-2.22 77.55-4.83 78.9-7.45 78.9-10.77L78.9-10.77Q78.9-14.11 77.74-16.66 76.58-19.21 74.4-20.63 72.21-22.05 69.26-22.05L69.26-22.05Q66.47-22.05 64.05-20.65 61.62-19.26 60.13-16.61 58.64-13.96 58.64-10.4L58.64-10.4Q58.64-7.23 59.82-4.72 61.01-2.22 63.26-0.78 65.52 0.66 68.67 0.66L68.67 0.66ZM68.23-19.48Q70.41-19.48 71.83-17.88 73.26-16.28 73.91-13.84 74.56-11.4 74.56-8.76L74.56-8.76Q74.56-6.96 73.99-5.35 73.43-3.74 72.29-2.72 71.14-1.71 69.5-1.71L69.5-1.71Q67.23-1.71 65.77-3.2 64.3-4.69 63.64-7.06 62.98-9.42 62.98-12.13L62.98-12.13Q62.98-14.14 63.54-15.81 64.11-17.48 65.29-18.48 66.47-19.48 68.23-19.48L68.23-19.48ZM89.45 0.51Q91.76 0.51 93.38-0.51 94.99-1.54 96.21-3.2L96.21-3.2 96.43-3.2 96.43-3.03Q96.43-1.44 97.37-0.44 98.31 0.56 100.07 0.56L100.07 0.56Q101.16 0.56 101.86 0.48 102.56 0.39 103.65 0.1L103.65 0.1 103.92-1.93 102.82-2.17Q101.77-2.42 101.27-2.62 100.77-2.83 100.47-3.43 100.16-4.03 100.16-5.25L100.16-5.25 100.16-31.03 99.65-31.62 92.86-31.03 92.52-29.2 96.23-27.86 96.23-24.02 96.53-20.9 96.35-20.9Q95.74-21.34 94.55-21.66 93.35-21.97 92.16-21.97L92.16-21.97Q89.62-21.97 87.14-20.36 84.66-18.75 83.07-15.94 81.49-13.13 81.49-9.74L81.49-9.74Q81.49-6.49 82.55-4.17 83.61-1.86 85.43-0.67 87.25 0.51 89.45 0.51L89.45 0.51ZM90.98-19.58Q92.28-19.58 93.78-18.68 95.28-17.77 96.21-16.26L96.21-16.26 96.21-4.81Q95.5-3.98 94.05-3.27 92.6-2.56 91.18-2.56L91.18-2.56Q89.62-2.56 88.4-3.55 87.18-4.54 86.48-6.51 85.78-8.47 85.78-11.28L85.78-11.28Q85.78-15.06 87.03-17.32 88.27-19.58 90.98-19.58L90.98-19.58Z" opacity="1" transform="matrix(1,0,0,1,0,0)" fill="#bfd7b7" class="wordmark-text-0" data-fill-palette-color="primary" id="text-0"></path></svg></g></svg></g><g transform="matrix(1,0,0,1,0,153.62877454847634)"><svg viewBox="0 0 395.52 59.681075062392004" height="59.681075062392004" width="395.52"><g transform="matrix(1,0,0,1,0,0)"><svg width="395.52" viewBox="1.95 -38.5 260.43 39.3" height="59.681075062392004" data-palette-color="#bfd7b7"><path d="M38.7-1.2L38.7 0 24.85 0 24.85-1.2 29.2-1.65 29.2-16.5 11.45-16.5 11.45-1.65 15.8-1.2 15.8 0 1.95 0 1.95-1.2 6.3-1.65 6.3-31.75 1.95-32.2 1.95-33.4 15.8-33.4 15.8-32.2 11.45-31.75 11.45-18.3 29.2-18.3 29.2-31.75 24.85-32.2 24.85-33.4 38.7-33.4 38.7-32.2 34.35-31.75 34.35-1.65 38.7-1.2ZM66.85-12.2Q66.85-6.65 63.5-3.05 60.15 0.55 54.37 0.55 48.6 0.55 45.25-3.05 41.9-6.65 41.9-12.2 41.9-17.75 45.25-21.35 48.6-24.95 54.37-24.95 60.15-24.95 63.5-21.35 66.85-17.75 66.85-12.2ZM47.35-12.2L47.35-12.2Q47.35-0.65 54.37-0.65 61.4-0.65 61.4-12.2L61.4-12.2Q61.4-17.8 59.8-20.75 58.2-23.7 54.4-23.7 50.6-23.7 48.97-20.75 47.35-17.8 47.35-12.2ZM104.35-24.75L104.35-24.75Q112.35-24.75 112.35-17.05L112.35-17.05Q112.35-11.5 112-1.45L112-1.45 115.55-1.2 115.55 0 104.4 0 104.4-1.2 107.1-1.4Q107.45-14.6 107.45-17.43 107.45-20.25 106.4-21.65 105.35-23.05 103-23.05 100.65-23.05 98.65-21.08 96.65-19.1 95.95-16.85L95.95-16.85Q95.95-11.45 95.6-1.45L95.6-1.45 99.15-1.2 99.15 0 88 0 88-1.2 90.7-1.4Q91.05-14.6 91.05-17.43 91.05-20.25 90-21.65 88.95-23.05 86.37-23.05 83.8-23.05 81.55-20.33 79.3-17.6 79.3-15.5L79.3-15.5 79.3-1.45 83.05-1.2 83.05 0 71.15 0 71.15-1.2 74.4-1.4 74.4-22.6 70.15-22.8 70.15-23.95 79.1-24.55 78.85-19.4 79.35-19.4Q80.7-22.05 82.97-23.4 85.25-24.75 87.95-24.75L87.95-24.75Q94.7-24.75 95.75-19.35L95.75-19.35 95.75-19.4Q97.1-22.05 99.37-23.4 101.65-24.75 104.35-24.75ZM130.39 0.55Q125.24 0.55 122.09-2.95 118.94-6.45 118.94-12.2 118.94-17.95 122.27-21.45 125.59-24.95 130.64-24.95 135.69-24.95 138.19-22.68 140.69-20.4 140.69-16.35L140.69-16.35Q140.69-15.15 140.49-13.95L140.49-13.95 124.34-13.95 124.34-12.2Q124.34-6.6 125.94-3.73 127.54-0.85 131.19-0.85L131.19-0.85Q136.34-0.85 139.14-5.35L139.14-5.35Q140.24-5 140.24-4.3L140.24-4.3Q140.24-3.05 137.94-1.4L137.94-1.4Q136.84-0.6 134.84-0.03 132.84 0.55 130.39 0.55L130.39 0.55ZM135.94-17.4L135.94-17.4Q135.94-19.7 134.99-21.35L134.99-21.35Q133.69-23.55 130.79-23.55L130.79-23.55Q125.39-23.55 124.49-15.75L124.49-15.75 135.84-15.75Q135.94-16.6 135.94-17.4ZM160.64-1.4L160.64-23.1 157.14-23.1 157.14-24.4 160.64-24.4 160.64-25.15Q160.64-31.8 163.44-35.15 166.24-38.5 171.44-38.5L171.44-38.5Q174.54-38.5 176.61-37.33 178.69-36.15 178.69-34.18 178.69-32.2 177.34-31.3L177.34-31.3Q176.54-30.75 175.76-30.75 174.99-30.75 174.29-31.05L174.29-31.05Q174.59-32.45 174.59-33.75 174.59-35.05 173.69-36.05 172.79-37.05 171.19-37.05 169.59-37.05 168.46-36.18 167.34-35.3 166.79-34.13 166.24-32.95 165.94-31L165.94-31Q165.54-28.4 165.54-24.4L165.54-24.4 173.09-24.4 173.09-23.1 165.54-23.1 165.54-1.45 171.14-1.2 171.19 0 157.29 0 157.24-1.2 160.64-1.4ZM200.34-12.2Q200.34-6.65 196.99-3.05 193.64 0.55 187.86 0.55 182.09 0.55 178.74-3.05 175.39-6.65 175.39-12.2 175.39-17.75 178.74-21.35 182.09-24.95 187.86-24.95 193.64-24.95 196.99-21.35 200.34-17.75 200.34-12.2ZM180.84-12.2L180.84-12.2Q180.84-0.65 187.86-0.65 194.89-0.65 194.89-12.2L194.89-12.2Q194.89-17.8 193.29-20.75 191.69-23.7 187.89-23.7 184.09-23.7 182.46-20.75 180.84-17.8 180.84-12.2ZM229.78-12.2Q229.78-6.65 226.43-3.05 223.08 0.55 217.31 0.55 211.53 0.55 208.18-3.05 204.83-6.65 204.83-12.2 204.83-17.75 208.18-21.35 211.53-24.95 217.31-24.95 223.08-24.95 226.43-21.35 229.78-17.75 229.78-12.2ZM210.28-12.2L210.28-12.2Q210.28-0.65 217.31-0.65 224.33-0.65 224.33-12.2L224.33-12.2Q224.33-17.8 222.73-20.75 221.13-23.7 217.33-23.7 213.53-23.7 211.91-20.75 210.28-17.8 210.28-12.2ZM253.28-7.65L253.28-7.65 253.28-21.4Q250.88-23.25 247.33-23.25L247.33-23.25Q242.88-23.25 241.23-19.6L241.23-19.6Q239.88-16.5 239.88-11.15L239.88-11.15Q239.88-0.8 245.48-0.8L245.48-0.8Q248.63-0.8 250.96-3.2 253.28-5.6 253.28-7.65ZM244.53 0.75L244.53 0.75Q240.23 0.75 237.28-2.33 234.33-5.4 234.33-11.53 234.33-17.65 237.91-21.2 241.48-24.75 247.43-24.75L247.43-24.75Q250.53-24.75 253.28-23.3L253.28-23.3 253.28-35.9 248.88-36.1 248.83-37.25 258.08-38.3 258.08-1.15 262.33-0.95 262.38 0.2 253.53 0.8 253.63-4 253.33-4Q252.13-1.75 249.68-0.5 247.23 0.75 244.53 0.75Z" opacity="1" transform="matrix(1,0,0,1,0,0)" fill="#bfd7b7" class="slogan-text-1" data-fill-palette-color="secondary" id="text-1"></path></svg></g></svg></g></svg></g></svg></g><g transform="matrix(1,0,0,1,0,2.037896467543135)"><svg viewBox="0 0 244.43135999999998 210.3006059238364" height="210.3006059238364" width="244.43135999999998"><g><svg xmlns="http://www.w3.org/2000/svg" xmlns:xlink="http://www.w3.org/1999/xlink" version="1.1" x="0" y="0" viewBox="6.397000000000003 12.484999999999998 87.207 75.03" enable-background="new 0 0 100 100" xml:space="preserve" height="210.3006059238364" width="244.43135999999998" class="icon-icon-0" data-fill-palette-color="accent" id="icon-0"><g fill="#cde895" data-fill-palette-color="accent"><path d="M93.604 21.956c0 6.888-4.797 9.471-8.856 9.471H69.25c-3.566 0-6.519-2.091-7.749-4.92l-0.492-0.984V25.4l-49.815 0.861c-3.074 0-4.797-1.476-4.797-4.305 0-2.952 1.723-4.428 4.797-4.428l49.815 0.861v-0.123l0.492-0.861c1.6-2.706 4.183-4.92 7.749-4.92h15.498C88.807 12.485 93.604 15.437 93.604 21.956zM89.914 48.155v1.599c0 0.984-0.983 2.091-2.214 2.091H10.456c-1.107 0-1.969-1.107-1.969-2.091v-1.599c0-1.353 0.861-2.091 1.969-2.091H87.7C88.93 46.064 89.914 46.802 89.914 48.155zM11.931 56.888h74.416c0 16.113-9.472 25.584-23.862 30.627H35.917C21.402 82.472 11.931 73.001 11.931 56.888z" fill="#cde895" data-fill-palette-color="accent"></path></g></svg></g></svg></g></svg></g><defs></defs></svg><rect width="395.52" height="115.2476475596252" fill="none" stroke="none" visibility="hidden"></rect></g></svg></g></svg>